<?xml version="1.0" encoding="utf-8"?>
<!-- Generator: Adobe Illustrator 26.5.0, SVG Export Plug-In . SVG Version: 6.00 Build 0)  -->
<svg version="1.1" xmlns="http://www.w3.org/2000/svg" xmlns:xlink="http://www.w3.org/1999/xlink" x="0px" y="0px"
	 viewBox="0 0 552.94 407.84" style="enable-background:new 0 0 552.94 407.84;" xml:space="preserve">
<style type="text/css">
	.st0{fill:#010202;}
</style>
<g id="Camada_2">
</g>
<g id="SÃMBOLO_1">
	<g>
		<path class="st0" d="M402.29,273.17l-29.81-29.83l-13.31-13.29l-2.3-2.3l-16.49-16.52l-26.63-26.6l-2.28-2.28l-3.2-3.22
			l-32.11-32.11l-64.22,64.22l-18.82,18.82l-13.29,13.29l-32.11,32.11l27.5,27.53l4.61,4.58l13.29,13.31l18.82,18.8l8.71,8.73
			l17.87,17.87l5.53,5.51l22,22.02l10.11,10.09l32.11-32.11l3.2-3.2l2.3-2.3l26.6-26.6l64.22-64.22h-0.02L402.29,273.17z
			 M311.46,304.35l-3.2,3.2l-32.11,32.11l-10.11-10.09l-8.71-8.71l-13.29-13.31l-23.4-23.38l-8.71-8.73l64.22-64.22l18.8,18.82
			l13.31,13.29l3.2,3.22l28.89,28.89h0.02L311.46,304.35z"/>
		<path class="st0" d="M515.87,100.29l-3.2-3.2l-2.3-2.3l-26.6-26.6L419.54,3.96v0.02l-2.28,2.28l-29.83,29.81l-13.29,13.31
			l-2.3,2.3l-16.52,16.49l-26.6,26.63l-2.28,2.28l-3.22,3.2L291.1,132.4l64.22,64.22l18.82,18.82l13.29,13.29l32.11,32.11
			l27.53-27.5l4.58-4.61l13.31-13.29l18.8-18.82l8.73-8.71l17.87-17.87l5.51-5.53l22.02-22l10.09-10.11L515.87,100.29z
			 M473.67,142.51l-8.71,8.71l-13.31,13.29l-23.38,23.4l-8.73,8.71l-64.22-64.22l18.82-18.8l13.29-13.31l3.22-3.2l28.89-28.89v-0.02
			l28.91,28.91l3.2,3.2l32.11,32.11L473.67,142.51z"/>
		<path class="st0" d="M178.8,215.41l2.3-2.3l16.52-16.49l26.6-26.63l2.28-2.28l3.22-3.2l32.11-32.11l-64.22-64.22L178.8,49.36
			l-13.29-13.29L133.4,3.96l-27.53,27.5l-4.58,4.61L87.98,49.36l-18.8,18.82l-8.73,8.71L42.58,94.76l-5.51,5.53l-22.02,22
			L4.96,132.4l32.11,32.11l3.2,3.2l2.3,2.3l26.6,26.6l64.22,64.22v-0.02l2.28-2.28l29.83-29.81L178.8,215.41z M133.4,196.59v0.02
			l-28.91-28.91l-3.2-3.2L69.18,132.4l10.09-10.11l8.71-8.71l13.31-13.29l23.38-23.4l8.73-8.71l64.22,64.22l-18.82,18.8
			l-13.29,13.31l-3.22,3.2L133.4,196.59z"/>
	</g>
</g>
</svg>
